<svg width="3745" height="1681" viewBox="0 0 3745 1681" fill="none" xmlns="http://www.w3.org/2000/svg">
<path d="M434.938 1767.34C468.186 1723.45 464.88 1599.68 511.905 1634.02C551.215 1662.67 413.997 1848.69 434.203 1875.69C454.593 1902.68 581.707 1954.29 597.138 1939.23C612.568 1924.17 592.729 1876.79 623.773 1821.88C660.511 1757.06 639.203 1668.18 670.431 1675.52C701.658 1682.87 694.494 1733.92 688.065 1778.73C682.003 1820.78 656.47 1947.86 681.636 1957.78C706.801 1967.69 819.588 1967.69 829.875 1954.84C840.161 1941.98 834.65 1892.77 835.569 1858.79C836.671 1816.92 784.503 1756.69 814.077 1746.41C843.651 1736.31 853.203 1781.85 860.367 1816.01C866.98 1847.96 869.185 1937.21 895.452 1942.53C921.72 1947.86 1005.12 1917.19 1013.75 1905.62C1022.38 1894.05 961.03 1812.88 982.889 1814.17C1002.73 1815.45 1016.32 1862.65 1036.71 1895.89C1075.47 1878.63 1106.15 1860.26 1122.68 1843.37C1144.54 1820.96 1153.91 1770.65 1154.64 1710.23C1125.62 1719.59 1040.57 1744.75 1020.91 1721.06C999.054 1694.62 1146.37 1684.15 1153.72 1663.22C1161.07 1642.28 1157.21 1571.03 1139.58 1541.46C1130.94 1526.96 1079.14 1527.88 1024.59 1548.08C967.276 1569.38 906.474 1609.96 877.083 1590.68C817.384 1551.75 974.623 1536.69 1050.49 1510.98C1087.78 1498.31 1120.11 1486.37 1123.05 1465.99C1125.99 1445.6 1109.45 1420.26 1101.92 1402.08C1093.47 1381.7 1071.43 1334.69 1051.04 1322.93C1030.65 1311.18 959.928 1350.11 895.085 1392.9C802.872 1453.68 786.707 1518.51 748.499 1506.57C710.292 1494.82 771.093 1387.02 837.59 1345.52C892.146 1311.36 994.462 1272.43 983.257 1251.31C972.052 1230.2 889.207 1157.29 831.712 1147.01C774.216 1136.91 687.514 1408.14 650.959 1390.33C612.016 1371.23 692.473 1266.92 713.23 1214.95C727.191 1180.06 745.928 1136.36 740.968 1115.97C735.825 1095.59 652.98 1095.04 624.875 1113.77C596.954 1132.5 585.198 1314.85 536.887 1309.34C482.147 1302.92 541.479 1217.34 551.031 1177.67C554.889 1161.33 554.705 1144.8 553.052 1130.66C530.09 1138.74 507.863 1149.03 487.657 1162.43C396.73 1221.93 387.178 1357.09 387.178 1357.09C387.178 1357.09 305.803 1392.17 269.799 1447.26C249.41 1478.29 227.918 1541.46 232.327 1612.9C247.94 1603.53 266.309 1596.19 284.862 1589.76C327.295 1574.89 379.28 1520.53 383.504 1559.28C387.362 1595.82 257.492 1666.71 254.186 1706.19C253.451 1714.82 261.901 1723.64 266.677 1732.08C291.108 1775.97 368.993 1854.39 387.362 1848.33C409.038 1841.16 400.037 1814.17 435.673 1767.34L434.938 1767.34Z" fill="#76AB9F"/>
<path d="M231.775 1613.08C247.389 1603.72 265.758 1596.37 284.311 1589.95C326.744 1575.07 378.729 1520.71 382.953 1559.46C386.811 1596.01 256.941 1666.89 253.635 1706.37C252.9 1715 261.35 1723.82 266.126 1732.27C290.557 1776.16 368.442 1854.57 386.811 1848.51C408.487 1841.35 399.486 1814.35 435.122 1767.52C468.37 1723.63 465.063 1599.86 512.088 1634.2C551.398 1662.85 414.181 1848.88 434.387 1875.87C454.777 1902.87 581.891 1954.47 597.321 1939.41C612.751 1924.35 592.913 1876.97 623.957 1822.07C660.695 1757.24 639.387 1668.36 670.614 1675.7C701.842 1683.05 694.678 1734.1 688.249 1778.91C682.187 1820.96 656.654 1948.04 681.819 1957.96C706.985 1967.88 819.771 1967.88 830.058 1955.02C840.345 1942.17 834.834 1892.95 835.753 1858.98C836.855 1817.11 784.686 1756.87 814.261 1746.59C843.835 1736.49 853.387 1782.03 860.551 1816.19C867.164 1848.14 869.368 1937.39 895.636 1942.72C921.904 1948.04 1005.3 1917.37 1013.93 1905.81C1022.57 1894.24 961.214 1813.07 983.073 1814.35C1002.91 1815.64 1016.51 1862.83 1036.89 1896.07C1075.65 1878.81 1106.33 1860.45 1122.86 1843.55C1127.82 1838.41 1132.05 1831.8 1135.72 1823.9C1004.75 1773.4 785.605 1635.86 688.249 1569.01C586.484 1499.23 568.849 1471.31 387.178 1357.46C387.178 1357.46 305.803 1392.53 269.799 1447.62C249.41 1478.66 227.918 1541.83 232.326 1613.27L231.775 1613.08Z" fill="#609790"/>
<path d="M1087.78 1815.82C1087.78 1815.82 1013.57 1782.77 907.944 1723.08C855.041 1693.33 794.606 1656.61 731.233 1614.55C667.859 1572.32 603.2 1524.94 536.336 1480.31C503.088 1457.91 469.289 1436.05 436.04 1414.75C402.609 1393.63 369.36 1373.62 337.031 1354.7C304.517 1335.97 272.739 1318.53 242.246 1302.73C226.816 1295.02 211.937 1287.67 197.609 1280.33C182.914 1273.53 168.769 1267.11 155.36 1260.86C127.99 1249.11 102.824 1238.27 80.0466 1230.38C57.4526 1221.56 37.2465 1215.87 20.8979 1210.73C4.36572 1205.59 -8.86011 1203.02 -17.6774 1200.63C-26.6782 1198.43 -31.4542 1197.32 -31.4542 1197.32L-32.7399 1196.96C-42.8429 1194.39 -48.9048 1184.28 -46.5167 1174.18C-43.9451 1164.08 -33.8422 1158.02 -23.7391 1160.41L-23.5553 1160.41C-23.5553 1160.41 -18.5957 1161.7 -9.22742 1164.08C0.140869 1166.84 14.1013 1169.59 31.1847 1175.29C48.2679 1180.98 69.2087 1187.22 92.3539 1196.59C115.866 1205.04 141.583 1216.61 169.504 1228.91C183.281 1235.52 197.609 1242.32 212.488 1249.48C227.183 1257.01 242.246 1264.9 257.676 1272.8C288.353 1289.33 320.499 1307.51 353.196 1326.79C385.709 1346.44 419.141 1367.19 452.389 1388.86C485.637 1410.71 519.252 1433.12 552.501 1456.26C618.997 1501.98 684.207 1550.28 745.377 1593.43C807.097 1636.41 866.429 1674.05 918.23 1704.72C1021.83 1766.24 1094.39 1800.4 1094.39 1800.4C1098.62 1802.42 1100.27 1807.19 1098.43 1811.41C1096.59 1815.45 1091.64 1817.29 1087.59 1815.45L1087.78 1815.82Z" fill="#569188"/>
<path d="M2334.67 1741.08C2363.33 1714.63 2381.33 1692.41 2388.5 1674.79L2398.78 1678.83C2391.07 1697.92 2371.96 1721.61 2342.21 1749.16L2334.67 1741.08Z" fill="#569188"/>
<path d="M1716.37 2102.48C1748.51 2082.65 1782.31 2061.35 1817.77 2039.31C2057.67 1889.09 2356.17 1702.15 2592.94 1640.26L2595.7 1650.91C2360.39 1712.25 2062.63 1898.83 1823.46 2048.49C1788.19 2070.71 1754.21 2091.83 1722.06 2111.66L1716.18 2102.3L1716.37 2102.48Z" fill="#569188"/>
<path d="M2233.46 1540.73C2240.62 1544.22 2228.68 1589.21 2199.11 1668.91C2172.29 1741.08 2129.67 1801.13 2065.38 1843.37C2069.79 1776.34 2099.92 1720.33 2135.18 1660.64C2167.88 1605.37 2226.48 1537.42 2233.64 1540.73L2233.46 1540.73Z" fill="#609790"/>
<path d="M2022.21 1758.16C2014.13 1793.79 1982.17 1882.12 1945.98 1896.26C1911.08 1855.12 1947.27 1788.83 1968.39 1749.16C1995.4 1698.66 2006.97 1629.98 2038.56 1582.78C2048.3 1631.26 2032.68 1711.33 2022.21 1758.16Z" fill="#76AB9F"/>
<path d="M2505.69 1594.17C2485.67 1624.65 2424.5 1695.9 2385.74 1696.46C2367.55 1645.77 2424.87 1596.37 2458.66 1566.62C2501.65 1528.98 2536.92 1468.56 2583.02 1435.69C2575.13 1484.54 2532.14 1553.95 2505.87 1594.17L2505.69 1594.17Z" fill="#76AB9F"/>
<path d="M2688.65 1584.62C2649.15 1591.6 2546.65 1635.86 2542.24 1660.83C2556.76 1674.97 2626.01 1665.79 2682.95 1648.34C2739.35 1631.08 2817.23 1618.04 2864.44 1585.17C2805.66 1571.21 2740.45 1575.44 2688.65 1584.62Z" fill="#609790"/>
<path d="M2252.56 1734.1C2251.83 1674.97 2264.87 1616.39 2287.46 1560.38C2299.59 1530.26 2316.49 1501.98 2326.96 1470.95C2333.75 1450.75 2336.33 1427.42 2346.8 1409.79C2376.19 1526.22 2317.41 1646.51 2252.75 1734.1L2252.56 1734.1Z" fill="#76AB9F"/>
<path d="M2904.67 1883.4C3090.38 1714.64 3417.17 1365.91 3519.12 927.191L3529.59 929.578C3427.09 1371.23 3098.65 1721.8 2912.02 1891.3L2904.85 1883.4L2904.67 1883.4Z" fill="#569188"/>
<path d="M3470.99 1090.08C3481.46 1082 3490.46 1072.82 3500.01 1063.27C3506.63 1056.66 3513.24 1050.05 3520.22 1043.62L3527.38 1051.7C3520.4 1057.94 3513.97 1064.37 3507.54 1070.8C3498.18 1080.35 3488.44 1090.08 3477.42 1098.71L3470.81 1090.26L3470.99 1090.08Z" fill="#569188"/>
<path d="M3427.64 1103.85C3427.64 1097.42 3428.19 1091.36 3429.66 1086.04L3440.13 1088.79C3436.27 1103.3 3440.13 1126.07 3443.25 1146.27C3444.9 1156.74 3446.56 1166.47 3446.93 1174.37L3436.09 1174.92C3435.72 1167.57 3434.25 1158.03 3432.6 1147.93C3430.21 1133.42 3427.64 1117.62 3427.64 1103.85Z" fill="#569188"/>
<path d="M3396.23 1259.58C3413.49 1247.46 3432.78 1235.15 3446.01 1237.17L3444.35 1247.83C3433.7 1246.17 3410.19 1262.88 3402.47 1268.39L3396.23 1259.58Z" fill="#569188"/>
<path d="M3433.7 1180.06C3442.7 1166.66 3455.19 1158.76 3467.13 1151.23C3472.83 1147.56 3478.7 1143.89 3484.21 1139.48L3490.83 1147.93C3484.95 1152.52 3478.7 1156.56 3472.83 1160.23C3461.25 1167.58 3450.42 1174.37 3442.7 1185.94L3433.7 1179.88L3433.7 1180.06Z" fill="#569188"/>
<path d="M3379.88 1194.94L3390.35 1192.55C3396.04 1218.26 3401.37 1255.35 3393.84 1285.29L3383.37 1282.72C3390.35 1254.8 3385.39 1219.54 3379.88 1194.94Z" fill="#569188"/>
<path d="M3299.97 1338.36L3309.89 1334.14C3321.28 1361.32 3320.91 1385.19 3319.26 1411.27L3308.42 1410.53C3310.08 1385.74 3310.44 1363.15 3299.97 1338.36Z" fill="#569188"/>
<path d="M3266.72 1474.99C3268.01 1465.25 3324.4 1438.08 3324.95 1437.71C3338.55 1432.57 3352.32 1427.79 3365.92 1423.02C3379.69 1418.24 3393.47 1413.28 3407.06 1408.33L3410.92 1418.43C3397.33 1423.57 3383.55 1428.34 3369.59 1433.3C3356 1438.08 3342.41 1442.85 3328.81 1447.99C3319.26 1451.66 3280.69 1473.7 3276.83 1478.29L3272.97 1475.35L3269.11 1480.68L3266.72 1475.17L3266.72 1474.99ZM3277.38 1475.17C3277.38 1473.89 3276.46 1472.6 3275.36 1471.87L3273.15 1474.99L3277.38 1475.35L3277.38 1475.17Z" fill="#569188"/>
<path d="M3123.81 1657.89C3133.73 1649.63 3147.69 1566.99 3142.18 1516.12L3152.84 1515.02C3157.8 1561.85 3146.59 1652.75 3130.79 1666.16L3123.81 1657.89Z" fill="#569188"/>
<path d="M3164.41 1611.25C3194.9 1595.64 3241.01 1588.48 3279.03 1593.25L3277.75 1603.9C3242.29 1599.31 3197.84 1606.29 3169.37 1620.8L3164.41 1611.25Z" fill="#569188"/>
<path d="M3557.88 567.624C3565.59 567.991 3576.06 642.916 3576.25 736.572C3576.25 821.414 3574.22 871.731 3512.69 972.182C3521.51 897.257 3502.03 832.432 3514.16 756.222C3525.36 685.888 3550.16 567.073 3558.06 567.441L3557.88 567.624Z" fill="#609790"/>
<path d="M3055.48 1325.5C3065.21 1325.87 3073.48 1382.25 3078.81 1486.01C3083.58 1580.03 3064.48 1667.99 3012.5 1746.41C2985.13 1668.91 2991.74 1591.6 3002.58 1507.49C3012.68 1429.63 3045.74 1325.14 3055.48 1325.5Z" fill="#609790"/>
<path d="M3672.68 1278.31C3676.17 1284 3622.17 1331.01 3554.94 1376.92C3494.13 1418.43 3447.66 1425.04 3374.73 1427.61C3415.51 1379.86 3469.89 1351.58 3530.32 1323.12C3586.16 1296.67 3669.19 1272.62 3672.68 1278.31Z" fill="#76AB9F"/>
<path d="M3432.97 954.002C3443.25 987.975 3458.68 1078.33 3434.99 1107.89C3385.57 1089.9 3384.29 1016.26 3383 972.366C3381.53 916.539 3358.2 852.633 3362.24 797.541C3393.84 833.902 3419.37 909.377 3432.97 954.186L3432.97 954.002Z" fill="#76AB9F"/>
<path d="M3554.75 1264.54C3524.81 1270.6 3447.84 1275.37 3428.37 1250.39C3452.8 1206.87 3513.42 1213.3 3549.61 1216.79C3595.53 1221.2 3652.48 1206.51 3696.93 1215.87C3660.93 1241.21 3594.25 1256.82 3554.94 1264.72L3554.75 1264.54Z" fill="#76AB9F"/>
<path d="M3401 1568.28C3370.33 1587.38 3277.56 1620.43 3247.44 1598.76C3259.01 1537.61 3337.63 1524.2 3378.59 1513.92C3430.58 1500.7 3488.07 1460.48 3540.24 1453.87C3509.56 1498.13 3441.6 1543.12 3401 1568.28Z" fill="#609790"/>
<path d="M3585.43 927.558C3607.29 906.623 3635.03 887.524 3657.62 866.039C3676.36 848.226 3702.81 816.64 3729.08 814.987C3711.26 857.408 3680.95 910.112 3654.13 947.942C3618.31 998.81 3561.37 1036.46 3506.26 1063.45C3521.14 1011.85 3544.1 967.04 3585.43 927.374L3585.43 927.558Z" fill="#76AB9F"/>
<path d="M3269.48 1661.57C3303.28 1660.1 3341.12 1664.32 3375.84 1662.85C3404.86 1661.75 3449.87 1654.95 3474.48 1672.22C3429.66 1694.25 3366.65 1715.74 3317.06 1727.49C3250.38 1743.47 3171.76 1736.86 3104.16 1719.6C3152.65 1688.01 3205.74 1664.32 3269.66 1661.38L3269.48 1661.57Z" fill="#76AB9F"/>
<path d="M3246.33 1234.79C3241.01 1208.71 3240.09 1179.33 3234.76 1152.7C3230.35 1130.3 3219.33 1095.59 3230.72 1076.49C3254.42 1110.65 3279.77 1158.94 3295.56 1197.14C3316.87 1248.37 3320.91 1309.16 3314.48 1361.68C3282.34 1324.77 3256.44 1284.18 3246.33 1234.97L3246.33 1234.79Z" fill="#76AB9F"/>
<path d="M3468.23 1155.27C3506.63 1116.52 3554.02 1087.33 3605.82 1065.66C3633.56 1054.09 3663.5 1046.74 3691.05 1033.52C3708.87 1024.89 3725.95 1011.48 3744.51 1006.89C3687.19 1101.47 3571.1 1149.21 3468.23 1155.09L3468.23 1155.27Z" fill="#609790"/>
<path d="M3148.06 1540.36C3128.04 1486.37 3120.87 1428.16 3123.08 1369.39C3124.18 1337.81 3130.43 1306.22 3129.87 1274.27C3129.51 1253.52 3124.18 1231.11 3128.04 1211.65C3193.25 1308.98 3178.74 1438.81 3148.06 1540.55L3148.06 1540.36Z" fill="#76AB9F"/>
<path d="M3388.33 1205.96C3404.49 1166.11 3353.61 1105.14 3330.46 1075.39C3300.71 1037.01 3260.29 1020.11 3230.9 980.631C3218.05 1016.62 3271.68 1077.59 3292.26 1105.32C3318.16 1140.21 3359.86 1180.06 3388.33 1205.96Z" fill="#609790"/>
<path d="M1344.76 1506.39C1361.29 1493.53 1396.2 1470.21 1407.4 1484.72C1418.61 1499.23 1381.5 1523.83 1362.58 1525.12C1380.4 1526.04 1429.08 1527.87 1429.08 1545.69C1429.08 1563.5 1396.56 1561.11 1377.46 1555.97C1393.07 1568.09 1400.79 1600.41 1388.11 1608.49C1376.91 1615.65 1348.44 1585.72 1342.01 1565.7C1346.05 1577.64 1331.35 1621.53 1316.84 1621.71C1291.86 1621.71 1300.49 1578.74 1310.96 1565.7C1302.7 1574.52 1274.96 1583.52 1264.86 1575.62C1254.75 1567.72 1291.86 1546.24 1301.96 1542.56C1287.45 1544.03 1247.41 1532.46 1250.71 1515.02C1253.83 1497.76 1295.72 1512.26 1306.74 1521.08C1299.21 1513.18 1267.24 1477.92 1280.1 1463.42C1292.96 1448.91 1324.56 1490.59 1330.62 1500.33C1328.78 1489.31 1327.86 1445.24 1341.82 1444.32C1355.78 1443.4 1356.33 1497.02 1345.13 1506.39L1344.76 1506.39Z" fill="#EBDFE1"/>
<path d="M1341.82 1515.02C1330.62 1511.9 1319.23 1518.51 1316.47 1529.53C1313.9 1540.55 1317.76 1551.56 1329.15 1554.69C1340.35 1557.81 1347.89 1552.3 1353.03 1542.2C1357.99 1532.83 1353.03 1518.14 1341.82 1515.02Z" fill="#FFA64D"/>
<path d="M2835.23 1418.24C2818.52 1441.01 2782.7 1483.43 2765.8 1467.09C2748.9 1450.74 2787.29 1405.39 2809.52 1398.04C2788.02 1402.26 2729.61 1414.57 2725.2 1390.14C2720.98 1365.72 2760.29 1358.92 2784.35 1360.21C2762.68 1348.27 2745.78 1306.4 2759 1291.53C2770.76 1278.31 2811.9 1310.63 2824.4 1336.15C2816.68 1320.91 2823.48 1256.27 2840.74 1251.68C2870.5 1243.78 2870.69 1305.49 2861.32 1326.6C2869.03 1311.91 2899.89 1290.98 2913.85 1298.69C2927.81 1306.4 2888.87 1347.36 2877.67 1355.44C2894.57 1348.82 2945.26 1352.68 2945.63 1377.47C2946 1402.26 2892.54 1395.1 2877.3 1386.29C2888.14 1394.73 2934.98 1433.3 2923.22 1457.17C2911.47 1481.05 2863.52 1433.48 2853.97 1422.1C2858.75 1436.6 2870.69 1496.84 2854.15 1502.53C2837.62 1508.04 2823.84 1434.77 2835.05 1418.42L2835.23 1418.24Z" fill="#EBDFE1"/>
<path d="M2836.52 1405.39C2852.5 1406.3 2865.73 1393.82 2866.09 1377.84C2866.46 1362.05 2858.01 1348.09 2842.21 1347.17C2826.23 1346.25 2818.15 1356.17 2813.92 1371.41C2809.88 1385.74 2820.72 1404.47 2836.52 1405.39Z" fill="#FFA64D"/>
<path d="M2.34439 1003.95L7.12054 984.851C134.602 1016.44 253.083 1031.31 254.369 1031.5L251.981 1050.96C250.879 1050.96 131.296 1035.72 2.52826 1003.95L2.34439 1003.95Z" fill="#76AB9F"/>
<path d="M244.45 1044.72C248.675 1001.38 372.666 901.479 401.322 946.104C429.978 990.728 388.464 1014.97 388.464 1014.97C388.464 1014.97 441.918 1019.38 438.428 1066.02C434.938 1112.66 379.463 1101.28 379.463 1101.28C379.463 1101.28 410.874 1126.07 393.423 1160.59C375.973 1195.12 237.837 1114.68 244.45 1044.9L244.45 1044.72Z" fill="#EBDFE1"/>
<path d="M273.106 997.339C276.413 1030.39 270.351 1061.61 259.881 1092.1C259.881 1092.1 238.205 1063.27 241.328 1042.51C244.451 1021.58 273.106 997.522 273.106 997.522L273.106 997.339Z" fill="#76AB9F"/>
<path d="M3518.01 185.471L3534.55 175.738C3535.83 178.125 3669.01 409.511 3674.52 741.899L3655.42 742.266C3650.09 415.204 3519.48 187.858 3518.2 185.471L3518.01 185.471Z" fill="#76AB9F"/>
<path d="M3533.63 186.021C3497.07 204.568 3351.96 150.395 3372.35 103.383C3392.74 56.3712 3433.88 79.1427 3433.88 79.1427C3433.88 79.1427 3409.09 31.5801 3448.03 10.6452C3486.97 -10.2897 3507.18 42.5983 3507.18 42.5983C3507.18 42.5983 3510.12 3.29955 3546.85 0.544957C3583.59 -2.20963 3592.59 155.904 3533.63 185.837L3533.63 186.021Z" fill="#EBDFE1"/>
<path d="M3480.91 186.021C3505.34 166.372 3533.44 155.537 3563.2 148.926C3563.2 148.926 3551.81 181.981 3533.44 189.878C3515.26 197.958 3480.91 186.021 3480.91 186.021Z" fill="#76AB9F"/>
</svg>
