<svg width="3839" height="1929" viewBox="0 0 3839 1929" fill="none" xmlns="http://www.w3.org/2000/svg">
<g opacity="0.5">
<mask id="mask0_1_1411" style="mask-type:alpha" maskUnits="userSpaceOnUse" x="0" y="0" width="3839" height="4838">
<path d="M3839 0H0V4837.95H3839V0Z" fill="#CADB7F"/>
</mask>
<g mask="url(#mask0_1_1411)">
<path d="M898.778 571.669C910.675 562.703 850.458 438.644 831.057 399.669C864.918 373.686 904.086 346.788 947.282 320.439C967.415 359.414 1025.62 468.652 1039.9 457.124C1054.17 445.414 1019.21 326.478 1006.77 285.673C1017.38 279.635 1028.36 273.78 1039.35 267.741C1056.55 311.29 1112.56 450.171 1124.27 436.997C1135.99 423.822 1085.47 292.443 1069.36 252.005C1110.18 231.146 1152.64 211.018 1196.39 192.354C1210.3 223.277 1263.01 335.809 1283.33 318.792C1303.46 302.141 1274.91 195.282 1266.12 164.175C1275.46 160.516 1284.79 157.222 1294.31 153.745C1306.57 185.401 1350.31 295.188 1363.31 282.929C1375.94 271.035 1352.15 170.945 1343.73 136.728C1382.53 123.92 1421.51 112.758 1460.13 103.426C1471.85 137.094 1502.6 221.265 1514.13 215.226C1525.66 209.188 1500.58 127.579 1490.52 96.473C1502.05 93.9113 1513.76 91.3496 1525.11 89.3369C1532.25 123.188 1550.73 202.052 1567.02 190.707C1582.95 179.545 1574.71 111.843 1570.13 82.2007C1573.43 81.6517 1576.91 81.1028 1580.2 80.5539C1625.23 74.6985 1671.72 71.222 1717.84 71.9539C1719.3 93.3624 1723.33 133.618 1733.03 130.507C1742.55 127.579 1747.49 91.7156 1749.32 73.0517C1831.69 77.9922 1911.67 97.7539 1979.02 143.499C1899.22 172.775 1871.4 221.814 1838.82 279.818C1808.99 263.716 1741.09 228.95 1731.75 242.307C1721.87 256.214 1785.38 308.546 1810.09 328.124C1787.76 362.89 1758.47 399.303 1726.44 434.069C1692.22 407.354 1584.96 326.112 1566.66 341.116C1548.35 355.937 1641.7 454.38 1673.91 487.499C1649.94 510.188 1626.14 531.231 1603.81 548.614C1592.1 557.763 1581.12 566.18 1570.32 574.414C1535.91 543.308 1430.12 449.256 1418.22 456.21C1406.14 463.163 1511.56 564.35 1543.6 594.725C1530.42 604.606 1517.6 614.12 1505.34 623.086C1479.53 596.005 1389.85 504.516 1367.52 518.605C1346.11 531.963 1420.6 628.942 1448.42 663.525C1417.3 685.116 1386.56 705.61 1352.51 728.299C1319.57 698.657 1222.19 612.84 1208.47 621.806C1194.19 631.137 1293.58 722.261 1322.31 748.061C1310.23 755.929 1298.15 763.431 1286.07 770.75C1270.88 752.635 1207.55 679.444 1192.73 686.763C1179.36 693.533 1229.33 763.431 1250.2 791.793C1214.14 812.47 1178.08 831.133 1142.58 847.967C1106.7 813.567 1022.69 736.35 1003.84 745.133C984.986 754.099 1049.78 839.916 1078.51 876.329C1063.14 882.733 1048.13 888.589 1033.12 894.261C1013.36 864.618 960.094 787.767 942.34 790.878C924.586 793.989 975.468 875.597 996.151 907.618C814.584 969.282 663.218 974.223 604.831 922.44C512.95 840.831 532.9 740.376 592.751 646.142C611.969 662.244 648.576 690.788 655.165 680.908C661.571 671.21 637.411 627.844 622.768 603.325C631.92 591.431 641.621 579.72 651.504 568.193C669.258 595.456 735.149 695.363 745.582 682.006C756.015 668.648 702.387 560.508 686.646 529.767C707.695 507.993 729.292 487.316 750.341 468.286C764.251 490.427 809.826 560.874 819.16 553.371C827.946 546.235 792.438 472.495 778.161 443.584C786.215 436.631 793.902 430.044 801.406 423.639C802.321 422.907 803.419 421.993 804.335 421.261C823.187 458.222 887.065 580.635 899.145 571.486L898.778 571.669Z" fill="#76AB9F"/>
<path d="M1732.67 130.506C1742.18 127.579 1747.12 91.7147 1748.95 73.0509C1831.32 77.9913 1911.3 97.753 1978.66 143.498C1652.31 133.617 1258.07 471.579 1107.07 585.941C976.383 684.932 673.65 865.532 594.215 912.558C514.231 832.779 534.547 736.532 592.202 646.141C611.42 662.243 648.026 690.788 654.615 680.907C661.021 671.209 636.861 627.843 622.219 603.324C631.37 591.43 641.071 579.719 650.955 568.192C668.709 595.456 734.6 695.362 745.032 682.005C755.465 668.647 701.837 560.507 686.096 529.766C707.145 507.992 728.742 487.315 749.791 468.285C763.701 490.426 809.276 560.873 818.61 553.37C827.396 546.234 791.888 472.494 777.612 443.583C785.665 436.63 793.352 430.043 800.857 423.638C801.772 422.907 802.87 421.992 803.785 421.26C822.637 458.221 886.515 580.634 898.595 571.485C910.492 562.519 850.275 438.46 830.874 399.485C864.734 373.502 903.903 346.604 947.098 320.255C967.231 359.23 1025.43 468.468 1039.71 456.941C1053.99 445.23 1019.03 326.294 1006.58 285.489C1017.2 279.451 1028.18 273.596 1039.16 267.557C1056.37 311.106 1112.37 449.987 1124.09 436.813C1135.8 423.638 1085.29 292.26 1069.18 251.821C1110 230.962 1152.46 210.834 1196.2 192.17C1210.11 223.094 1262.83 335.626 1283.14 318.609C1303.28 301.957 1274.72 195.098 1265.94 163.991C1275.27 160.332 1284.61 157.038 1294.12 153.562C1306.39 185.217 1350.13 295.004 1363.13 282.745C1375.76 270.851 1351.96 170.762 1343.54 136.545C1382.34 123.736 1421.33 112.574 1459.95 103.242C1471.66 136.911 1502.41 221.081 1513.94 215.043C1525.47 209.004 1500.4 127.396 1490.33 96.2892C1501.86 93.7275 1513.58 91.1658 1524.93 89.153C1532.06 123.004 1550.55 201.868 1566.84 190.523C1582.76 179.362 1574.53 111.659 1569.95 82.0168C1573.25 81.4679 1576.72 80.919 1580.02 80.37C1625.04 74.5147 1671.53 71.0381 1717.66 71.77C1719.12 93.1786 1723.15 133.434 1732.85 130.323L1732.67 130.506Z" fill="#609790"/>
<path d="M1836.99 161.978C1836.99 161.978 1828.94 163.442 1813.93 166.369C1799.47 170.029 1777.87 175.701 1751.52 186.131C1724.98 196.012 1693.5 210.467 1658.17 228.582C1622.85 246.697 1583.68 268.471 1541.95 294.271C1458.49 345.506 1363.86 409.914 1265.39 483.106C1215.79 519.336 1164.36 556.846 1112.19 594.906C1059.85 632.965 1006.4 670.842 952.772 708.719C898.961 746.229 844.967 783.74 791.156 819.604C764.434 837.902 737.528 855.285 710.806 872.668C684.266 890.051 657.91 906.885 631.554 923.17C605.563 939.638 579.573 955.374 553.949 970.561C528.507 985.932 503.249 1000.39 478.54 1014.11C429.122 1041.92 381.351 1066.63 336.508 1087.85C291.666 1109.08 249.569 1126.83 211.865 1141.46C173.977 1155.74 140.666 1167.63 112.845 1175.68C85.2074 1184.65 63.0607 1190.32 48.0522 1194.16C33.0438 1198.19 24.9902 1200.38 24.9902 1200.38C14.3745 1203.13 3.57588 1196.91 0.647416 1186.29C-2.09807 1175.68 4.12471 1164.89 14.7406 1161.96L15.4729 1161.77C15.4729 1161.77 23.3431 1159.76 37.9856 1155.92C52.6279 1152.08 74.2255 1146.59 101.131 1137.99C128.403 1130.12 160.799 1118.59 197.771 1104.87C234.56 1090.78 275.742 1073.4 319.852 1052.72C363.78 1031.86 411.185 1008.44 460.237 981.357C484.763 968 510.021 954.093 535.28 939.089C560.721 924.451 586.711 909.081 612.701 892.978C638.875 877.059 665.414 860.774 691.954 843.757C718.676 826.923 745.582 809.723 772.304 791.974C826.298 756.842 880.475 720.063 934.469 683.102C988.463 645.957 1042.27 608.629 1094.8 571.302C1147.33 533.791 1199.13 497.012 1249.1 461.331C1349.4 389.786 1445.31 325.927 1530.97 276.522C1573.61 251.637 1613.88 230.778 1650.12 213.395C1686.36 195.829 1719.12 182.837 1746.58 173.688C1773.85 164.173 1796.36 159.233 1811.73 155.939C1826.93 153.744 1834.98 152.463 1834.98 152.463C1837.73 152.097 1840.1 153.927 1840.65 156.671C1841.02 159.233 1839.19 161.795 1836.63 162.161L1836.99 161.978Z" fill="#569188"/>
<path d="M275.404 470.699C319.515 485.52 376.254 573.167 392.544 527.057C406.271 488.265 221.959 424.222 223.241 395.678C224.522 367.133 288.583 270.52 306.52 273.814C324.457 277.107 333.242 319.376 381.013 342.98C437.569 370.793 465.024 442.703 483.327 422.759C501.63 402.814 472.345 370.61 446.355 342.431C422.012 316.082 343.675 239.78 356.487 220.75C369.299 201.72 447.819 148.107 461.18 152.133C474.541 156.158 494.126 193.12 510.965 216.358C531.647 244.903 524.143 311.873 549.584 304.92C575.025 297.967 560.017 261.737 548.669 234.473C538.053 209.039 497.054 145.912 512.795 129.626C528.535 113.341 601.199 95.0435 612.73 98.886C624.26 102.912 620.234 188.546 634.876 177.201C648.055 166.954 634.876 127.431 633.412 94.6775C668.737 88.2732 698.937 86.4434 718.338 90.286C744.329 95.4094 774.712 126.15 803.996 167.869C779.287 175.005 708.088 198.061 705.709 224.044C702.964 252.954 810.769 190.01 825.777 201.171C840.786 212.333 872.084 263.75 873.914 292.661C874.829 306.75 838.406 330.903 790.635 342.797C740.485 355.239 678.804 355.971 667.456 383.418C644.577 439.044 761.167 374.635 826.326 356.337C858.356 347.371 886.543 340.235 898.257 353.044C909.971 365.852 910.703 391.469 913.998 407.571C917.842 425.869 924.797 469.052 916.194 486.984C907.592 504.916 839.688 511.504 774.163 512.601C680.817 514.248 638.72 476.737 617.854 503.086C596.989 529.435 690.517 575.546 756.774 572.984C811.135 570.789 900.82 549.197 903.016 569.142C905.212 589.087 882.333 679.478 847.192 713.878C812.05 748.278 622.247 600.797 605.225 630.44C587.105 662.278 693.08 696.678 732.248 722.844C758.605 740.41 792.649 762.002 798.689 778.653C804.729 795.304 747.257 835.193 718.887 835.559C690.518 835.742 595.342 714.244 564.409 741.325C529.268 771.882 611.448 803.355 636.89 826.227C647.322 835.742 655.192 847.453 660.683 857.882C640.733 863.189 620.417 866.483 599.917 867.031C508.219 868.861 437.02 779.202 437.02 779.202C437.02 779.202 363.625 793.474 312.376 772.248C283.457 760.355 238.249 726.504 207.317 674.721C222.692 673.806 238.981 670.146 254.905 665.938C291.511 656.057 353.741 669.231 338.184 640.138C323.541 612.874 199.08 625.316 178.032 599.516C173.456 593.844 175.104 583.78 174.371 575.546C170.528 533.461 187.366 441.605 203.107 437.031C221.593 431.542 228.182 454.78 275.404 470.516L275.404 470.699Z" fill="#76AB9F"/>
<path d="M207.5 675.087C222.874 674.173 239.164 670.513 255.088 666.304C291.694 656.424 353.924 669.598 338.366 640.504C323.724 613.241 199.263 625.683 178.215 599.883C173.639 594.211 175.286 584.147 174.554 575.913C170.71 533.828 187.549 441.972 203.29 437.398C221.776 431.908 228.365 455.147 275.587 470.883C319.697 485.704 376.437 573.351 392.727 527.24C406.454 488.449 222.142 424.406 223.423 395.862C224.704 367.317 288.765 270.704 306.702 273.998C324.639 277.291 333.425 319.559 381.196 343.164C437.752 370.976 465.207 442.887 483.51 422.943C501.813 402.998 472.528 370.794 446.538 342.615C422.195 316.266 343.857 239.964 356.669 220.934C369.482 201.904 448.002 148.291 461.363 152.317C474.724 156.342 494.309 193.304 511.147 216.542C531.83 245.087 524.326 312.057 549.767 305.104C575.208 298.151 560.2 261.921 548.852 234.657C538.236 209.223 497.237 146.095 512.978 129.81C528.718 113.708 601.381 95.2273 612.912 99.0698C624.443 102.912 620.417 188.73 635.059 177.385C648.237 167.138 635.059 127.615 633.595 94.8613C668.92 88.4571 699.12 86.6273 718.521 90.4698C724.378 91.5677 730.601 94.3124 736.824 97.972C669.652 195.5 582.529 395.679 546.472 488.815C508.951 585.977 509.866 613.79 437.569 779.751C437.569 779.751 364.174 794.024 312.925 772.798C284.006 760.905 238.798 727.054 207.866 675.27L207.5 675.087Z" fill="#609790"/>
<path d="M720.351 133.652C720.351 133.652 686.124 192.022 643.478 284.427C622.063 330.537 598.818 385.065 576.489 444.35C554.525 503.635 532.195 568.41 507.852 631.903C495.772 663.742 483.143 695.58 470.331 726.687C457.519 757.793 444.157 788.168 430.796 817.444C417.252 846.538 403.708 874.533 390.163 900.699C383.208 913.691 376.436 926.317 369.847 938.576C362.892 950.653 356.12 962.363 349.714 973.525C336.169 995.666 323.723 1015.79 311.46 1032.99C299.746 1050.56 288.032 1065.01 278.881 1077.09C269.546 1089.17 261.127 1097.95 256.002 1104.17C250.694 1110.39 247.765 1113.69 247.765 1113.69C240.993 1121.56 229.096 1122.29 221.226 1115.52C213.356 1108.75 212.624 1096.85 219.396 1088.98L220.311 1088.07C220.311 1088.07 223.057 1084.96 228.181 1079.29C233.123 1073.43 241.177 1065.38 250.145 1054.04C259.113 1042.69 270.461 1029.15 281.992 1012.32C294.072 996.032 306.518 976.636 319.88 955.41C326.286 944.614 333.058 933.453 340.013 921.742C346.602 909.848 353.557 897.589 360.512 884.963C374.24 859.529 387.967 832.265 401.694 803.721C415.239 775.176 428.966 745.35 442.144 714.793C455.322 684.235 468.317 652.946 480.947 621.474C506.571 558.529 528.901 494.852 553.061 435.201C577.221 375.733 602.113 321.388 624.809 275.461C670.2 183.605 706.257 125.235 706.257 125.235C708.637 121.392 713.761 120.111 717.605 122.49C721.449 124.869 722.73 129.809 720.351 133.652Z" fill="#569188"/>
<path d="M3628.71 386.713L3637.86 380.675C3659.46 412.879 3678.49 434.287 3694.6 443.985L3688.92 453.317C3671.35 442.704 3651.04 420.381 3628.71 386.713Z" fill="#569188"/>
<path d="M3628.71 538.951C3630.17 536.024 3632 532.547 3634.01 528.704C3641.88 514.066 3652.5 494.122 3653.05 476.007L3664.03 476.373C3663.3 497.049 3651.95 518.275 3643.71 533.828C3641.7 537.487 3640.05 540.781 3638.59 543.709L3628.71 538.951Z" fill="#569188"/>
<path d="M3577.46 397.143C3591.37 368.049 3608.57 325.415 3598.32 291.381L3608.94 288.27C3620.29 325.964 3602.17 371.342 3587.34 401.9L3577.46 397.143Z" fill="#569188"/>
<path d="M3580.2 240.33L3588.62 233.377C3614.61 265.032 3654.51 290.283 3669.34 299.798C3672.27 301.628 3674.28 302.909 3675.38 303.824L3668.97 312.79C3667.87 312.058 3666.04 310.777 3663.3 309.13C3647.92 299.432 3607.11 273.632 3579.84 240.513L3580.2 240.33Z" fill="#569188"/>
<path d="M3520.72 258.08C3538.84 241.977 3560.44 205.931 3560.44 185.071L3560.44 184.705L3571.42 184.705C3571.42 184.705 3571.42 184.705 3571.42 185.071C3571.42 211.42 3546.16 250.029 3528.04 266.131L3520.72 257.897L3520.72 258.08Z" fill="#569188"/>
<path d="M3510.65 55.3385L3519.44 48.7512C3540.49 77.4789 3583.5 99.0705 3596.31 105.109L3591.73 114.99C3578.37 108.768 3533.35 86.0789 3510.65 55.3385Z" fill="#569188"/>
<path d="M3480.63 102.364C3482.1 94.8619 3484.29 87.5427 3486.49 79.6747C3492.17 60.0959 3498.02 39.7853 3493.45 16.364L3504.25 14.1682C3509.37 40.1512 3502.96 62.6576 3497.11 82.6023C3494.91 90.2874 3492.9 97.4236 3491.43 104.377L3480.63 102.364Z" fill="#569188"/>
<path d="M3369.35 -280.245L3379.42 -284.454C3393.88 -249.871 3409.44 -213.092 3425.73 -174.849C3535.91 84.6148 3672.82 407.756 3696.43 650.386L3685.45 651.483C3662.02 410.317 3525.48 88.2744 3415.66 -170.641C3399.37 -208.883 3383.81 -245.662 3369.35 -280.245Z" fill="#569188"/>
<path d="M3851.09 312.424C3846.51 318.828 3804.05 300.165 3730.47 258.445C3663.67 220.752 3611.32 169.335 3579.84 99.4368C3645.18 114.441 3695.51 152.684 3748.77 196.782C3798.01 237.586 3855.66 306.02 3851.27 312.424L3851.09 312.424Z" fill="#609790"/>
<path d="M3494.36 708.756C3487.59 707.475 3489.42 634.284 3500.95 552.126C3511.38 477.654 3538.29 438.13 3586.61 381.224C3594.66 444.901 3578.56 505.284 3558.42 570.607C3539.94 630.99 3501.13 710.22 3494.36 708.939L3494.36 708.756Z" fill="#76AB9F"/>
<path d="M3670.25 70.3424C3636.58 56.8019 3554.58 11.4232 3546.34 -26.2705C3592.28 -54.0833 3651.95 -8.15558 3687.64 18.9253C3733.03 53.3253 3798.93 75.6488 3840.29 114.074C3791.05 116.087 3714.55 88.0913 3670.25 70.3424Z" fill="#76AB9F"/>
<path d="M3755.55 571.888C3728.64 547.368 3668.06 476.007 3673.73 437.764C3726.44 427.883 3766.16 491.926 3789.96 529.802C3820.34 577.926 3874.15 622.207 3899.23 672.709C3852.55 657.339 3790.69 604.092 3755.55 571.888Z" fill="#76AB9F"/>
<path d="M3736.33 753.403C3735.78 713.513 3708.14 605.739 3684.35 597.322C3668.24 609.398 3666.23 678.93 3674.46 737.849C3682.7 796.037 3683.25 874.718 3708.14 926.318C3731.2 870.692 3737.24 805.918 3736.33 753.403Z" fill="#609790"/>
<path d="M3398.64 228.069C3406.69 189.278 3450.25 92.6648 3489.97 88.4563C3529.5 148.107 3481 217.639 3458.49 256.797C3429.75 306.567 3418.41 382.869 3384.54 427.15C3372.65 367.499 3388.21 279.303 3398.82 228.252L3398.64 228.069Z" fill="#609790"/>
<path d="M3466.73 394.764C3446.59 418.185 3420.05 440.508 3399.37 464.479C3381.98 484.423 3358.37 518.823 3331.65 523.947C3345.19 480.032 3370.45 424.406 3393.7 383.785C3424.81 329.257 3478.26 281.317 3531.88 247.649C3522.37 300.164 3504.8 350.666 3466.73 394.947L3466.73 394.764Z" fill="#76AB9F"/>
<path d="M3422.98 -52.6184C3422.07 3.00718 3408.16 58.2668 3385.28 110.782C3373.01 138.96 3356.17 165.675 3345.38 194.769C3338.42 213.616 3335.31 235.756 3324.88 252.224C3299.98 142.071 3351.42 24.7817 3422.98 -52.6184Z" fill="#76AB9F"/>
<path d="M3642.07 523.947C3640.24 579.573 3625.23 634.466 3601.44 686.615C3588.62 714.611 3571.42 740.96 3560.07 769.871C3552.75 788.717 3549.27 810.675 3538.66 826.96C3515.78 716.441 3569.22 600.066 3642.07 523.947Z" fill="#609790"/>
<path d="M3657.81 300.895C3716.01 309.495 3771.65 331.636 3823.27 362.559C3850.91 379.21 3876.16 400.253 3905.08 415.44C3923.75 425.321 3946.45 431.542 3962.19 444.534C3843.04 455.146 3733.95 378.295 3657.81 300.895Z" fill="#76AB9F"/>
<path d="M2080.82 491.743C2058.3 477.105 2015.66 444.718 2028.29 425.139C2041.1 405.56 2086.49 440.143 2095.83 462.466C2089.42 440.509 2071.3 380.858 2092.9 373.539C2114.49 366.22 2125.29 406.475 2127.12 431.726C2135.18 407.756 2171.05 385.066 2186.06 396.96C2199.42 407.573 2175.26 454.598 2153.66 470.518C2166.48 460.637 2225.78 459.905 2232 477.471C2242.8 507.662 2186.97 515.347 2166.84 508.028C2181.12 514.433 2203.63 544.075 2198.32 559.628C2193.01 575.182 2151.47 539.318 2142.68 528.705C2150.55 545.722 2153.3 598.786 2130.97 602.262C2108.64 605.739 2108.82 549.016 2114.68 531.998C2108.27 544.258 2078.99 597.871 2056.11 588.356C2033.23 579.024 2070.2 523.216 2079.54 511.871C2066.91 518.641 2014.01 538.403 2006.87 521.752C1999.92 505.101 2064.53 482.045 2080.63 491.743L2080.82 491.743Z" fill="#EBDFE1"/>
<path d="M2092.71 491.742C2093.63 506.747 2106.44 517.725 2120.9 516.262C2135.36 514.798 2146.89 505.466 2145.98 490.461C2145.06 475.457 2135.18 468.87 2120.9 466.674C2107.36 464.661 2091.8 476.738 2092.71 491.742Z" fill="#FFA64D"/>
<path d="M3795.26 1607.37C3796.18 1605.17 3880.92 1386.51 3841.39 1096.86L3858.23 1094.48C3898.31 1388.89 3811.92 1611.39 3811 1613.59L3795.08 1607.37L3795.26 1607.37Z" fill="#76AB9F"/>
<path d="M3808.81 1604.81C3774.03 1593.28 3653.05 1660.8 3677.39 1699.59C3701.55 1738.38 3735.05 1712.76 3735.05 1712.76C3735.05 1712.76 3719.49 1758.14 3756.83 1771.32C3793.98 1784.49 3804.78 1735.09 3804.78 1735.09C3804.78 1735.09 3812.83 1769.49 3845.6 1766.93C3878.36 1764.36 3865 1623.47 3808.81 1604.99L3808.81 1604.81Z" fill="#FFEBAB"/>
<path d="M3762.32 1611.94C3786.66 1626.03 3812.83 1631.89 3840.11 1633.72C3840.11 1633.72 3825.46 1606.09 3808.26 1601.51C3791.05 1596.94 3762.32 1612.13 3762.32 1612.13L3762.32 1611.94Z" fill="#76AB9F"/>
<path d="M3577.64 1620.72C3578.92 1618.89 3713.45 1430.24 3847.61 1174.62L3863.17 1182.85C3728.28 1439.76 3593.2 1629.14 3591.92 1630.97L3577.64 1620.72Z" fill="#76AB9F"/>
<path d="M3584.78 1617.61C3619.19 1635.73 3659.28 1772.41 3612.6 1780.83C3565.93 1789.25 3560.07 1746.61 3560.07 1746.61C3560.07 1746.61 3538.29 1789.25 3500.77 1770.4C3463.25 1751.55 3491.8 1709.65 3491.8 1709.65C3491.8 1709.65 3460.69 1727.22 3438.17 1700.87C3415.66 1674.52 3529.32 1588.15 3584.78 1617.43L3584.78 1617.61Z" fill="#EBDFE1"/>
<path d="M3614.07 1657.32C3585.7 1648.72 3561.9 1633.17 3540.3 1614.14C3540.3 1614.14 3571.42 1606.09 3587.71 1615.78C3604 1625.48 3614.07 1657.32 3614.07 1657.32Z" fill="#76AB9F"/>
<path d="M12.0223 1329.79L14.0356 1310.94C338.366 1344.06 578.868 1241.59 581.247 1240.49L588.935 1257.88C586.555 1258.97 341.66 1363.46 12.2055 1329.79L12.0223 1329.79Z" fill="#76AB9F"/>
<path d="M578.685 1255.86C564.592 1217.44 635.242 1080.39 679.535 1106C723.645 1131.62 696.191 1169.68 696.191 1169.68C696.191 1169.68 746.158 1150.65 762.265 1191.64C778.372 1232.62 723.646 1246.53 723.646 1246.53C723.646 1246.53 762.265 1254.22 760.618 1290.81C758.97 1327.41 601.564 1317.71 578.868 1255.86L578.685 1255.86Z" fill="#FFEBAB"/>
<path d="M584.909 1203.72C601.564 1230.25 608.886 1259.34 611.997 1289.35C611.997 1289.35 580.699 1274.16 574.842 1255.13C568.985 1236.1 584.909 1203.53 584.909 1203.53L584.909 1203.72Z" fill="#76AB9F"/>
</g>
</g>
</svg>
