<svg width="906" height="750" viewBox="0 0 906 750" fill="none" xmlns="http://www.w3.org/2000/svg">
<path d="M276.363 777.113C289.157 765.307 297.195 755.386 300.393 747.515L304.986 749.319C301.541 757.846 293.012 768.422 279.726 780.721L276.363 777.113Z" fill="#569188"/>
<path d="M0.308066 938.469C14.6603 929.614 29.7506 920.103 45.5791 910.265C152.688 843.197 285.959 759.732 391.673 732.101L392.903 736.857C287.845 764.241 154.902 847.543 48.1215 914.364C32.3751 924.285 17.2027 933.714 2.85045 942.569L0.226035 938.387L0.308066 938.469Z" fill="#569188"/>
<path d="M231.174 687.663C234.373 689.221 229.042 709.308 215.838 744.892C203.864 777.113 184.837 803.924 156.132 822.782C158.101 792.855 171.551 767.849 187.297 741.202C201.896 716.523 228.058 686.187 231.256 687.663L231.174 687.663Z" fill="#609790"/>
<path d="M136.86 784.738C133.251 800.644 118.981 840.081 102.824 846.395C87.2419 828.029 103.398 798.431 112.83 780.721C124.886 758.174 130.053 727.51 144.159 706.438C148.505 728.083 141.534 763.831 136.86 784.738Z" fill="#76AB9F"/>
<path d="M352.717 711.521C343.778 725.132 316.468 756.944 299.163 757.19C291.044 734.561 316.632 712.505 331.722 699.223C350.913 682.415 366.659 655.441 387.245 640.765C383.718 662.574 364.527 693.566 352.799 711.521L352.717 711.521Z" fill="#76AB9F"/>
<path d="M434.402 707.258C416.769 710.374 371.006 730.133 369.038 741.284C375.517 747.597 406.436 743.498 431.86 735.709C457.037 728.002 491.811 722.18 512.888 707.504C486.644 701.273 457.53 703.159 434.402 707.258Z" fill="#609790"/>
<path d="M239.704 773.998C239.376 747.597 245.199 721.442 255.286 696.435C260.699 682.989 268.244 670.363 272.919 656.507C275.953 647.488 277.102 637.075 281.776 629.204C294.898 681.186 268.654 734.889 239.786 773.998L239.704 773.998Z" fill="#76AB9F"/>
<path d="M530.849 840.655C613.764 765.307 759.665 609.609 805.182 413.735L809.857 414.801C764.094 611.986 617.455 768.504 534.13 844.181L530.931 840.655L530.849 840.655Z" fill="#569188"/>
<path d="M783.694 486.46C788.369 482.853 792.388 478.753 796.652 474.49C799.605 471.538 802.557 468.586 805.674 465.717L808.872 469.324C805.756 472.112 802.885 474.981 800.015 477.851C795.832 482.115 791.486 486.46 786.565 490.314L783.612 486.542L783.694 486.46Z" fill="#569188"/>
<path d="M764.34 492.609C764.34 489.74 764.586 487.034 765.242 484.656L769.916 485.886C768.194 492.363 769.916 502.53 771.311 511.549C772.049 516.222 772.787 520.568 772.951 524.093L768.112 524.339C767.948 521.06 767.292 516.796 766.554 512.287C765.488 505.81 764.34 498.759 764.34 492.609Z" fill="#569188"/>
<path d="M750.315 562.136C758.025 556.725 766.636 551.232 772.541 552.134L771.803 556.889C767.046 556.151 756.548 563.612 753.104 566.072L750.315 562.136Z" fill="#569188"/>
<path d="M767.046 526.635C771.064 520.65 776.641 517.124 781.972 513.763C784.515 512.123 787.139 510.483 789.599 508.515L792.552 512.287C789.927 514.337 787.139 516.14 784.515 517.78C779.348 521.06 774.509 524.093 771.064 529.259L767.046 526.553L767.046 526.635Z" fill="#569188"/>
<path d="M743.016 533.276L747.691 532.21C750.233 543.689 752.612 560.251 749.249 573.615L744.574 572.467C747.691 560.005 745.476 544.263 743.016 533.276Z" fill="#569188"/>
<path d="M707.341 597.31L711.769 595.425C716.854 607.559 716.69 618.218 715.952 629.86L711.113 629.532C711.851 618.463 712.015 608.379 707.341 597.31Z" fill="#569188"/>
<path d="M692.496 658.31C693.07 653.965 718.248 641.83 718.494 641.666C724.563 639.371 730.714 637.239 736.783 635.107C742.934 632.976 749.085 630.762 755.154 628.548L756.876 633.058C750.807 635.353 744.656 637.485 738.423 639.699C732.354 641.831 726.285 643.962 720.216 646.258C715.952 647.898 698.729 657.736 697.007 659.786L695.285 658.474L693.562 660.852L692.496 658.392L692.496 658.31ZM697.253 658.392C697.253 657.819 696.843 657.245 696.351 656.917L695.367 658.31L697.253 658.474L697.253 658.392Z" fill="#569188"/>
<path d="M628.69 739.972C633.119 736.282 639.352 699.387 636.892 676.676L641.648 676.184C643.863 697.091 638.86 737.676 631.807 743.662L628.69 739.972Z" fill="#569188"/>
<path d="M646.815 719.147C660.429 712.178 681.015 708.98 697.991 711.112L697.417 715.867C681.589 713.817 661.742 716.933 649.03 723.41L646.815 719.147Z" fill="#569188"/>
<path d="M822.486 253.199C825.931 253.363 830.606 286.815 830.688 328.63C830.688 366.509 829.786 388.974 802.311 433.823C806.248 400.371 797.555 371.429 802.967 337.403C807.97 306.001 819.042 252.954 822.568 253.118L822.486 253.199Z" fill="#609790"/>
<path d="M598.182 591.571C602.528 591.735 606.219 616.906 608.597 663.23C610.729 705.209 602.2 744.482 578.991 779.491C566.771 744.891 569.723 710.374 574.562 672.822C579.073 638.059 593.835 591.407 598.182 591.571Z" fill="#609790"/>
<path d="M873.744 570.5C875.303 573.041 851.191 594.031 821.174 614.528C794.028 633.058 773.279 636.009 740.72 637.157C758.927 615.84 783.202 603.213 810.185 590.505C835.116 578.699 872.186 567.958 873.744 570.5Z" fill="#76AB9F"/>
<path d="M766.718 425.706C771.31 440.874 778.2 481.213 767.62 494.413C745.558 486.378 744.984 453.5 744.41 433.905C743.754 408.98 733.339 380.448 735.143 355.851C749.249 372.085 760.649 405.783 766.718 425.788L766.718 425.706Z" fill="#76AB9F"/>
<path d="M821.092 564.35C807.724 567.056 773.361 569.187 764.668 558.037C775.575 538.605 802.64 541.475 818.796 543.033C839.299 545.001 864.723 538.442 884.57 542.623C868.496 553.938 838.725 560.907 821.174 564.432L821.092 564.35Z" fill="#76AB9F"/>
<path d="M752.448 699.961C738.751 708.488 697.335 723.246 683.885 713.571C689.052 686.269 724.153 680.284 742.442 675.692C765.652 669.789 791.322 651.833 814.613 648.882C800.917 668.641 770.572 688.729 752.448 699.961Z" fill="#609790"/>
<path d="M834.788 413.899C844.548 404.553 856.932 396.026 867.019 386.433C875.385 378.48 887.195 364.378 898.922 363.64C890.967 382.579 877.435 406.11 865.461 423C849.469 445.711 824.045 462.519 799.441 474.572C806.084 451.533 816.335 431.527 834.788 413.817L834.788 413.899Z" fill="#76AB9F"/>
<path d="M693.726 741.612C708.817 740.956 725.711 742.842 741.212 742.186C754.17 741.694 774.263 738.66 785.253 746.367C765.242 756.206 737.111 765.799 714.968 771.046C685.197 778.179 650.096 775.228 619.915 767.521C641.566 753.418 665.268 742.842 693.808 741.53L693.726 741.612Z" fill="#76AB9F"/>
<path d="M683.393 551.068C681.014 539.426 680.604 526.307 678.226 514.419C676.258 504.416 671.337 488.92 676.422 480.393C687.001 495.643 698.319 517.206 705.372 534.26C714.886 557.135 716.69 584.274 713.82 607.723C699.467 591.243 687.904 573.123 683.393 551.15L683.393 551.068Z" fill="#76AB9F"/>
<path d="M782.464 515.566C799.605 498.267 820.764 485.23 843.892 475.555C856.276 470.39 869.644 467.11 881.946 461.207C889.901 457.354 897.528 451.369 905.812 449.319C880.224 491.544 828.391 512.861 782.464 515.485L782.464 515.566Z" fill="#609790"/>
<path d="M639.516 687.499C630.577 663.394 627.378 637.403 628.362 611.166C628.854 597.064 631.643 582.962 631.397 568.696C631.233 559.431 628.854 549.428 630.577 540.737C659.691 584.192 653.212 642.159 639.516 687.581L639.516 687.499Z" fill="#76AB9F"/>
<path d="M746.789 538.196C754.006 520.404 731.288 493.183 720.955 479.901C707.669 462.765 689.626 455.222 676.504 437.594C670.763 453.664 694.711 480.885 703.896 493.265C715.46 508.843 734.077 526.635 746.789 538.196Z" fill="#609790"/>
<path d="M499.848 632.975C492.385 643.142 476.393 662.081 468.848 654.784C461.302 647.487 478.443 627.236 488.367 623.956C478.771 625.842 452.691 631.335 450.723 620.431C448.836 609.526 466.387 606.492 477.131 607.066C467.453 601.737 459.908 583.043 465.813 576.402C471.062 570.499 489.433 584.929 495.01 596.326C491.565 589.521 494.6 560.66 502.309 558.61C515.595 555.085 515.677 582.634 511.494 592.062C514.939 585.503 528.717 576.156 534.95 579.6C541.183 583.043 523.796 601.327 518.793 604.935C526.339 601.983 548.974 603.705 549.138 614.773C549.302 625.842 525.436 622.644 518.629 618.709C523.468 622.48 544.381 639.698 539.133 650.357C533.884 661.015 512.478 639.78 508.214 634.697C510.346 641.174 515.677 668.067 508.296 670.608C500.915 673.068 494.764 640.354 499.766 633.057L499.848 632.975Z" fill="#EBDFE1"/>
<path d="M500.422 627.236C507.558 627.646 513.462 622.071 513.626 614.938C513.79 607.887 510.018 601.655 502.965 601.245C495.83 600.836 492.221 605.263 490.335 612.068C488.531 618.463 493.369 626.826 500.422 627.236Z" fill="#FFA64D"/>
<path d="M804.69 82.5793L812.071 78.2339C812.645 79.2997 872.104 182.607 874.564 331.008L866.035 331.172C863.657 185.148 805.346 83.6452 804.772 82.5793L804.69 82.5793Z" fill="#76AB9F"/>
<path d="M811.661 82.8253C795.34 91.1063 730.55 66.9193 739.654 45.93C748.757 24.9406 767.128 35.1074 767.128 35.1074C767.128 35.1074 756.056 13.8721 773.443 4.52533C790.83 -4.82149 799.851 18.7914 799.851 18.7914C799.851 18.7914 801.163 1.24572 817.566 0.0158756C833.968 -1.21397 837.987 69.3791 811.661 82.7434L811.661 82.8253Z" fill="#EBDFE1"/>
<path d="M788.123 82.8252C799.031 74.0524 811.579 69.2151 824.865 66.2634C824.865 66.2634 819.78 81.0215 811.579 84.5471C803.459 88.1546 788.123 82.8252 788.123 82.8252Z" fill="#76AB9F"/>
</svg>
