<svg width="233" height="796" viewBox="0 0 233 796" fill="none" xmlns="http://www.w3.org/2000/svg">
<path d="M139.11 172.656L143.196 169.96C152.839 184.338 161.338 193.897 168.529 198.227L165.996 202.393C158.151 197.655 149.08 187.688 139.11 172.656Z" fill="#569188"/>
<path d="M139.111 240.626C139.764 239.319 140.581 237.767 141.48 236.051C144.994 229.515 149.734 220.611 149.979 212.523L154.882 212.686C154.555 221.918 149.489 231.394 145.811 238.338C144.913 239.972 144.177 241.443 143.523 242.75L139.111 240.626Z" fill="#569188"/>
<path d="M116.229 177.312C122.44 164.323 130.122 145.288 125.545 130.093L130.285 128.704C135.351 145.533 127.261 165.793 120.642 179.436L116.229 177.312Z" fill="#569188"/>
<path d="M117.455 107.3L121.214 104.196C132.818 118.329 150.633 129.603 157.252 133.851C158.559 134.668 159.458 135.24 159.948 135.648L157.088 139.651C156.598 139.325 155.781 138.753 154.555 138.017C147.691 133.688 129.468 122.169 117.292 107.382L117.455 107.3Z" fill="#569188"/>
<path d="M90.8969 115.225C98.987 108.036 108.63 91.9419 108.63 82.6287L108.63 82.4653L113.533 82.4653C113.533 82.4653 113.533 82.4653 113.533 82.6287C113.533 94.3928 102.256 111.63 94.1656 118.819L90.8969 115.143L90.8969 115.225Z" fill="#569188"/>
<path d="M86.4023 24.7069L90.3248 21.7659C99.7223 34.5919 118.926 44.2319 124.646 46.9278L122.603 51.3393C116.638 48.5617 96.5353 38.4316 86.4023 24.7069Z" fill="#569188"/>
<path d="M73.0008 45.7028C73.6545 42.3533 74.6351 39.0855 75.6157 35.5726C78.149 26.8313 80.764 17.7632 78.721 7.30627L83.5424 6.32593C85.8305 17.9266 82.9703 27.975 80.3554 36.8797C79.3748 40.3109 78.4759 43.497 77.8221 46.6014L73.0008 45.7028Z" fill="#569188"/>
<path d="M23.3161 -125.121L27.8106 -127C34.2663 -111.56 41.2123 -95.1391 48.4852 -78.0649C97.6792 37.7781 158.804 182.051 169.346 290.378L164.443 290.868C153.983 183.195 93.0213 39.412 43.9907 -76.1859C36.7178 -93.2601 29.7718 -109.681 23.3161 -125.121Z" fill="#569188"/>
<path d="M238.397 139.488C236.354 142.347 217.396 134.014 184.545 115.388C154.718 98.5588 131.347 75.6026 117.292 44.3953C146.465 51.0942 168.937 68.1684 192.717 87.8568C214.699 106.075 240.44 136.629 238.479 139.488L238.397 139.488Z" fill="#609790"/>
<path d="M79.1294 316.439C76.1059 315.867 76.923 283.189 82.0713 246.508C86.7292 213.258 98.7417 195.612 120.315 170.205C123.911 198.635 116.72 225.594 107.731 254.759C99.4772 281.718 82.153 317.092 79.1294 316.52L79.1294 316.439Z" fill="#76AB9F"/>
<path d="M157.66 31.4058C142.624 25.3604 106.015 5.10013 102.337 -11.729C122.848 -24.1466 149.488 -3.6412 165.423 8.44961C185.689 23.8082 215.108 33.775 233.576 50.9309C211.594 51.8295 177.436 39.3302 157.66 31.4058Z" fill="#76AB9F"/>
<path d="M195.741 255.331C183.728 244.384 156.68 212.523 159.213 195.449C182.748 191.037 200.48 219.63 211.104 236.541C224.669 258.027 248.694 277.797 259.889 300.344C239.051 293.482 211.431 269.709 195.741 255.331Z" fill="#76AB9F"/>
<path d="M187.16 336.372C186.915 318.562 174.576 270.444 163.952 266.686C156.761 272.078 155.862 303.122 159.54 329.428C163.217 355.407 163.462 390.535 174.576 413.573C184.872 388.738 187.569 359.818 187.16 336.372Z" fill="#609790"/>
<path d="M36.3912 101.826C39.9868 84.5069 59.4356 41.3721 77.1684 39.4932C94.8194 66.1256 73.1642 97.1696 63.1129 114.652C50.2832 136.873 45.2167 170.94 30.099 190.71C24.7873 164.078 31.7333 124.701 36.4729 101.908L36.3912 101.826Z" fill="#609790"/>
<path d="M66.7903 176.25C57.8014 186.707 45.9523 196.674 36.7182 207.376C28.955 216.281 18.4134 231.639 6.48263 233.927C12.5297 214.32 23.8068 189.485 34.185 171.348C48.077 147.003 71.9385 125.599 95.8818 110.568C91.6325 134.014 83.7876 156.562 66.7903 176.332L66.7903 176.25Z" fill="#76AB9F"/>
<path d="M47.2598 -23.4929C46.8512 1.34226 40.6406 26.0141 30.4259 49.4604C24.9508 62.0414 17.4328 73.9688 12.6114 86.9583C9.50615 95.3728 8.11696 105.258 3.45905 112.61C-7.65456 63.4302 15.3081 11.0639 47.2598 -23.4929Z" fill="#76AB9F"/>
<path d="M145.076 233.927C144.259 258.762 137.558 283.27 126.934 306.553C121.214 319.053 113.533 330.817 108.466 343.724C105.197 352.139 103.645 361.942 98.9052 369.213C88.6904 319.87 112.552 267.912 145.076 233.927Z" fill="#609790"/>
<path d="M152.103 134.341C178.09 138.18 202.932 148.066 225.976 161.872C238.316 169.306 249.593 178.701 262.504 185.482C270.839 189.893 280.972 192.671 288 198.471C234.802 203.209 186.098 168.898 152.103 134.341Z" fill="#76AB9F"/>
<path d="M213.473 717.643C213.882 716.662 251.717 619.037 234.066 489.714L241.584 488.652C259.481 620.099 220.91 719.44 220.501 720.42L213.392 717.643L213.473 717.643Z" fill="#76AB9F"/>
<path d="M219.521 716.499C203.994 711.352 149.979 741.497 160.848 758.817C171.634 776.136 186.589 764.699 186.589 764.699C186.589 764.699 179.643 784.959 196.313 790.841C212.902 796.723 217.723 774.666 217.723 774.666C217.723 774.666 221.319 790.024 235.946 788.88C250.574 787.737 244.608 724.832 219.521 716.581L219.521 716.499Z" fill="#FFEBAB"/>
<path d="M198.764 719.685C209.633 725.975 221.318 728.589 233.494 729.406C233.494 729.406 226.957 717.071 219.275 715.028C211.594 712.986 198.764 719.766 198.764 719.766L198.764 719.685Z" fill="#76AB9F"/>
<path d="M116.311 723.606C116.883 722.789 176.946 638.562 236.845 524.434L243.791 528.11C183.565 642.81 123.257 727.364 122.685 728.181L116.311 723.606Z" fill="#76AB9F"/>
<path d="M119.498 722.217C134.861 730.304 152.757 791.33 131.919 795.088C111.081 798.846 108.466 779.811 108.466 779.811C108.466 779.811 98.7419 798.846 81.9898 790.432C65.2377 782.017 77.9856 763.309 77.9856 763.309C77.9856 763.309 64.0936 771.152 54.0423 759.388C43.9911 747.624 94.7378 709.064 119.498 722.135L119.498 722.217Z" fill="#EBDFE1"/>
<path d="M132.573 739.945C119.907 736.106 109.283 729.162 99.6408 720.665C99.6408 720.665 113.533 717.071 120.806 721.401C128.079 725.73 132.573 739.945 132.573 739.945Z" fill="#76AB9F"/>
</svg>
