<svg width="998" height="565" viewBox="0 0 998 565" fill="none" xmlns="http://www.w3.org/2000/svg">
<path d="M401.278 223.234C406.59 219.231 379.705 163.842 371.043 146.441C386.16 134.84 403.648 122.831 422.933 111.067C431.922 128.468 457.909 177.239 464.283 172.093C470.656 166.864 455.048 113.763 449.492 95.5448C454.231 92.8489 459.134 90.2347 464.037 87.5387C471.719 106.982 496.724 168.988 501.954 163.106C507.184 157.224 484.63 98.5675 477.439 80.513C495.662 71.1998 514.621 62.2134 534.151 53.8805C540.362 67.6869 563.896 117.929 572.967 110.332C581.956 102.897 569.208 55.1877 565.286 41.2996C569.453 39.6657 573.621 38.1952 577.87 36.643C583.345 50.7761 602.876 99.793 608.678 94.3194C614.316 89.0093 603.693 44.3223 599.934 29.0454C617.258 23.3267 634.664 18.3434 651.906 14.1769C657.136 29.2087 670.865 66.7883 676.013 64.0924C681.161 61.3965 669.966 24.9606 665.472 11.0725C670.62 9.92881 675.85 8.78509 680.916 7.88644C684.103 23 692.357 58.2104 699.63 53.1453C706.739 48.1619 703.062 17.9349 701.019 4.70034C702.49 4.45526 704.042 4.21017 705.513 3.96509C725.616 1.35086 746.372 -0.201333 766.965 0.125447C767.619 9.68372 769.416 27.6566 773.748 26.2678C777.997 24.9606 780.203 8.94847 781.02 0.615611C817.793 2.82137 853.504 11.6444 883.576 32.0681C847.947 45.1392 835.526 67.0334 820.98 92.9306C807.66 85.7415 777.343 70.2195 773.175 76.1832C768.763 82.392 797.119 105.757 808.151 114.498C798.181 130.02 785.106 146.277 770.806 161.799C755.524 149.872 707.638 113.599 699.466 120.298C691.294 126.916 732.97 170.867 747.353 185.654C736.648 195.784 726.024 205.179 716.055 212.94C710.825 217.025 705.922 220.783 701.1 224.459C685.738 210.571 638.505 168.58 633.193 171.684C627.8 174.789 674.869 219.966 689.17 233.527C683.286 237.939 677.566 242.187 672.091 246.19C660.568 234.099 620.527 193.252 610.557 199.542C600.996 205.506 634.255 248.804 646.676 264.244C632.784 273.884 619.056 283.034 603.856 293.164C589.147 279.93 545.673 241.615 539.544 245.618C533.17 249.784 577.543 290.468 590.373 301.987C584.98 305.5 579.586 308.85 574.193 312.117C567.41 304.03 539.136 271.352 532.517 274.62C526.551 277.642 548.86 308.85 558.176 321.512C542.078 330.744 525.979 339.077 510.126 346.593C494.109 331.234 456.601 296.759 448.184 300.68C439.767 304.683 468.695 342.998 481.525 359.255C474.661 362.115 467.96 364.729 461.259 367.261C452.433 354.027 428.654 319.715 420.727 321.104C412.8 322.493 435.518 358.928 444.752 373.225C363.688 400.756 296.107 402.962 270.039 379.842C229.017 343.406 237.924 298.556 264.646 256.483C273.226 263.672 289.57 276.417 292.512 272.005C295.372 267.675 284.585 248.314 278.048 237.367C282.134 232.057 286.465 226.828 290.877 221.681C298.804 233.854 328.222 278.459 332.88 272.495C337.538 266.532 313.595 218.25 306.567 204.526C315.965 194.804 325.607 185.572 335.005 177.076C341.216 186.961 361.563 218.414 365.731 215.064C369.653 211.878 353.8 178.955 347.426 166.047C351.022 162.943 354.454 160.002 357.804 157.143C358.213 156.816 358.703 156.407 359.112 156.081C367.529 172.583 396.048 227.237 401.442 223.152L401.278 223.234Z" fill="#76AB9F"/>
<path d="M773.584 26.2672C777.833 24.9601 780.04 8.94789 780.857 0.615032C817.63 2.82079 853.34 11.6438 883.413 32.0675C737.71 27.656 561.69 178.546 494.273 229.605C435.926 273.802 300.765 354.435 265.3 375.43C229.589 339.811 238.66 296.84 264.401 256.483C272.981 263.672 289.325 276.416 292.267 272.005C295.127 267.675 284.34 248.313 277.802 237.366C281.888 232.056 286.219 226.828 290.632 221.681C298.559 233.853 327.977 278.459 332.635 272.495C337.293 266.531 313.35 218.25 306.322 204.525C315.72 194.803 325.362 185.572 334.76 177.076C340.97 186.961 361.318 218.413 365.486 215.064C369.408 211.877 353.555 178.954 347.181 166.047C350.776 162.942 354.209 160.001 357.559 157.142C357.968 156.815 358.458 156.407 358.866 156.08C367.283 172.582 395.803 227.236 401.196 223.151C406.508 219.148 379.623 163.759 370.961 146.358C386.079 134.758 403.566 122.749 422.851 110.985C431.84 128.385 457.827 177.157 464.201 172.01C470.575 166.782 454.967 113.68 449.41 95.4625C454.149 92.7666 459.052 90.1524 463.955 87.4565C471.637 106.9 496.643 168.906 501.872 163.024C507.102 157.142 484.548 98.4852 477.357 80.4307C495.58 71.1175 514.539 62.1311 534.069 53.7983C540.28 67.6047 563.815 117.847 572.885 110.249C581.874 102.815 569.126 55.1054 565.204 41.2173C569.371 39.5834 573.539 38.1129 577.788 36.5607C583.263 50.6939 602.794 99.7107 608.596 94.2371C614.234 88.927 603.611 44.24 599.852 28.9631C617.176 23.2445 634.582 18.2611 651.825 14.0946C657.055 29.1265 670.783 66.706 675.931 64.0101C681.079 61.3142 669.884 24.8783 665.39 10.9903C670.538 9.84653 675.768 8.70281 680.834 7.80417C684.021 22.9177 692.275 58.1281 699.548 53.063C706.657 48.0796 702.98 17.8526 700.937 4.61807C702.408 4.37298 703.96 4.1279 705.431 3.88281C725.534 1.26858 746.29 -0.283608 766.883 0.0431713C767.537 9.60145 769.335 27.5743 773.666 26.1855L773.584 26.2672Z" fill="#609790"/>
<path d="M820.163 40.3185C820.163 40.3185 816.568 40.972 809.867 42.2791C803.411 43.913 793.768 46.4456 782.001 51.1021C770.152 55.5137 756.097 61.9675 740.325 70.0553C724.553 78.1431 707.066 87.8647 688.434 99.3837C651.171 122.258 608.923 151.015 564.959 183.693C542.813 199.868 519.851 216.616 496.561 233.608C473.19 250.601 449.328 267.511 425.385 284.422C401.36 301.17 377.253 317.917 353.228 333.929C341.297 342.099 329.285 349.86 317.354 357.621C305.505 365.382 293.738 372.897 281.97 380.168C270.366 387.521 258.762 394.547 247.322 401.327C235.963 408.19 224.686 414.643 213.654 420.771C191.59 433.188 170.262 444.217 150.241 453.693C130.22 463.17 111.425 471.094 94.5914 477.63C77.6758 484.002 62.8031 489.312 50.3821 492.907C38.0426 496.91 28.1549 499.443 21.454 501.158C14.7532 502.955 11.1575 503.936 11.1575 503.936C6.41789 505.161 1.59666 502.384 0.289164 497.645C-0.936604 492.907 1.84172 488.087 6.58134 486.78L6.90824 486.698C6.90824 486.698 10.4221 485.799 16.9595 484.084C23.4969 482.368 33.1396 479.918 45.1521 476.078C57.328 472.565 71.7921 467.418 88.2991 461.291C104.724 455.001 123.111 447.24 142.805 438.008C162.417 428.695 183.582 418.238 205.482 406.147C216.433 400.183 227.71 393.975 238.987 387.276C250.345 380.74 261.949 373.878 273.553 366.689C285.239 359.581 297.088 352.31 308.937 344.713C320.868 337.197 332.88 329.518 344.811 321.593C368.918 305.908 393.106 289.487 417.213 272.985C441.32 256.401 465.345 239.735 488.798 223.069C512.251 206.322 535.377 189.901 557.686 173.971C602.467 142.028 645.287 113.517 683.531 91.4593C702.571 80.3488 720.549 71.0356 736.729 63.2747C752.91 55.432 767.537 49.6316 779.795 45.5469C791.971 41.2988 802.022 39.093 808.886 37.6225C815.669 36.6422 819.264 36.0703 819.264 36.0703C820.49 35.9069 821.552 36.7239 821.798 37.9493C821.961 39.093 821.144 40.2368 820 40.4002L820.163 40.3185Z" fill="#569188"/>
<path d="M122.96 178.153C142.654 184.771 167.986 223.902 175.259 203.315C181.388 185.996 99.0983 157.403 99.6703 144.659C100.242 131.914 128.844 88.7794 136.852 90.2499C144.86 91.7204 148.783 110.592 170.111 121.13C195.362 133.548 207.619 165.654 215.791 156.749C223.963 147.845 210.888 133.466 199.284 120.885C188.416 109.121 153.441 75.0547 159.161 66.5584C164.881 58.0622 199.938 34.1257 205.903 35.9229C211.869 37.7202 220.613 54.2225 228.131 64.5978C237.365 77.3421 234.014 107.242 245.373 104.138C256.732 101.034 250.031 84.8581 244.964 72.6855C240.225 61.33 221.92 33.1453 228.948 25.8745C235.975 18.6037 268.417 10.4342 273.566 12.1498C278.714 13.9471 276.916 52.1802 283.454 47.1151C289.337 42.5402 283.453 24.8941 282.8 10.2708C298.571 7.41149 312.055 6.59454 320.717 8.31013C332.321 10.5976 345.886 24.3223 358.961 42.9487C347.929 46.1348 316.141 56.4283 315.078 68.029C313.852 80.9367 361.984 52.8337 368.685 57.8171C375.386 62.8005 389.36 85.7567 390.177 98.6645C390.585 104.955 374.324 115.739 352.995 121.049C330.605 126.604 303.066 126.931 297.999 139.185C287.785 164.02 339.839 135.264 368.93 127.094C383.231 123.091 395.815 119.905 401.045 125.624C406.275 131.342 406.602 142.78 408.073 149.969C409.789 158.138 412.894 177.418 409.054 185.424C405.213 193.43 374.896 196.371 345.641 196.861C303.965 197.597 285.17 180.849 275.854 192.613C266.538 204.377 308.296 224.964 337.877 223.821C362.148 222.84 402.189 213.2 403.17 222.105C404.151 231.01 393.936 271.367 378.246 286.726C362.556 302.084 277.815 236.238 270.215 249.473C262.125 263.688 309.44 279.046 326.927 290.729C338.695 298.571 353.894 308.211 356.591 315.646C359.288 323.08 333.628 340.889 320.962 341.053C308.296 341.134 265.802 286.889 251.992 298.98C236.302 312.623 272.994 326.674 284.352 336.886C289.01 341.134 292.524 346.363 294.976 351.019C286.068 353.388 276.998 354.859 267.845 355.104C226.905 355.921 195.117 315.891 195.117 315.891C195.117 315.891 162.348 322.263 139.467 312.786C126.555 307.476 106.371 292.363 92.5609 269.243C99.4252 268.834 106.698 267.201 113.807 265.322C130.151 260.91 157.935 266.792 150.989 253.803C144.452 241.63 88.8835 247.185 79.486 235.666C77.443 233.134 78.1785 228.641 77.8517 224.964C76.1356 206.175 83.6536 165.164 90.6813 163.122C98.9348 160.671 101.877 171.046 122.96 178.072L122.96 178.153Z" fill="#76AB9F"/>
<path d="M92.6425 269.407C99.5068 268.998 106.78 267.364 113.889 265.485C130.233 261.074 158.017 266.956 151.071 253.966C144.533 241.794 88.9652 247.349 79.5676 235.83C77.5247 233.298 78.2602 228.804 77.9333 225.128C76.2172 206.338 83.7353 165.328 90.7631 163.285C99.0165 160.834 101.958 171.21 123.042 178.235C142.736 184.853 168.068 223.984 175.341 203.397C181.47 186.078 99.1799 157.485 99.7519 144.741C100.324 131.996 128.925 88.8614 136.934 90.3319C144.942 91.8024 148.864 110.674 170.193 121.213C195.443 133.63 207.701 165.736 215.873 156.831C224.045 147.927 210.97 133.548 199.366 120.967C188.497 109.203 153.522 75.1367 159.242 66.6405C164.963 58.1442 200.02 34.2077 205.985 36.005C211.95 37.8023 220.694 54.3046 228.212 64.6798C237.446 77.4242 234.096 107.324 245.455 104.22C256.813 101.116 250.113 84.9401 245.046 72.7676C240.306 61.412 222.002 33.2273 229.029 25.9565C236.057 18.7674 268.499 10.5162 273.647 12.2318C278.795 13.9474 276.998 52.2622 283.535 47.1971C289.419 42.6222 283.535 24.9762 282.881 10.3528C298.653 7.49352 312.136 6.67658 320.798 8.39217C323.413 8.88234 326.192 10.1078 328.97 11.7416C298.98 55.2849 260.082 144.659 243.984 186.241C227.232 229.621 227.64 242.039 195.362 316.136C195.362 316.136 162.593 322.508 139.712 313.032C126.8 307.721 106.616 292.608 92.806 269.488L92.6425 269.407Z" fill="#609790"/>
<path d="M321.615 27.6717C321.615 27.6717 306.334 53.7323 287.294 94.9881C277.733 115.575 267.355 139.92 257.385 166.389C247.579 192.858 237.609 221.778 226.741 250.126C221.348 264.341 215.709 278.556 209.989 292.444C204.269 306.332 198.303 319.894 192.338 332.965C186.291 345.954 180.244 358.453 174.196 370.136C171.091 375.936 168.068 381.573 165.126 387.047C162.02 392.438 158.997 397.667 156.137 402.65C150.09 412.535 144.533 421.522 139.058 429.201C133.828 437.044 128.598 443.498 124.512 448.889C120.344 454.281 116.585 458.203 114.297 460.98C111.927 463.758 110.62 465.228 110.62 465.228C107.596 468.741 102.285 469.068 98.771 466.045C95.2571 463.023 94.9302 457.712 97.9537 454.2L98.3624 453.791C98.3624 453.791 99.5882 452.402 101.876 449.87C104.083 447.256 107.678 443.661 111.682 438.596C115.687 433.531 120.753 427.485 125.901 419.97C131.295 412.699 136.851 404.039 142.817 394.562C145.677 389.742 148.701 384.759 151.806 379.531C154.748 374.22 157.853 368.747 160.958 363.11C167.087 351.754 173.216 339.582 179.345 326.838C185.392 314.093 191.521 300.777 197.404 287.134C203.288 273.491 209.09 259.521 214.728 245.47C226.169 217.367 236.139 188.937 246.925 162.304C257.712 135.754 268.826 111.49 278.959 90.985C299.225 49.9743 315.323 23.9137 315.323 23.9137C316.385 22.1981 318.673 21.6262 320.389 22.6883C322.106 23.7503 322.678 25.9561 321.615 27.6717Z" fill="#569188"/>
<path d="M929.023 187.549C918.972 181.013 899.932 166.553 905.57 157.812C911.291 149.07 931.557 164.511 935.724 174.478C932.864 164.674 924.774 138.042 934.417 134.774C944.059 131.506 948.881 149.479 949.698 160.753C953.294 150.051 969.31 139.921 976.011 145.231C981.976 149.969 971.19 170.965 961.547 178.072C967.267 173.661 993.744 173.334 996.522 181.176C1001.34 194.656 976.42 198.087 967.431 194.82C973.805 197.679 983.856 210.913 981.486 217.857C979.116 224.801 960.566 208.789 956.644 204.051C960.158 211.649 961.384 235.34 951.414 236.892C941.444 238.444 941.526 213.119 944.141 205.521C941.281 210.995 928.206 234.932 917.991 230.683C907.777 226.517 924.284 201.6 928.451 196.535C922.813 199.558 899.196 208.381 896.009 200.947C892.904 193.512 921.75 183.219 928.942 187.549L929.023 187.549Z" fill="#EBDFE1"/>
<path d="M934.335 187.548C934.744 194.247 940.464 199.149 946.92 198.495C953.375 197.842 958.524 193.676 958.115 186.977C957.706 180.278 953.294 177.337 946.92 176.356C940.873 175.458 933.927 180.849 934.335 187.548Z" fill="#FFA64D"/>
<path d="M5.36755 561.711L6.26645 553.296C151.07 568.083 258.447 522.334 259.51 521.844L262.942 529.605C261.88 530.095 152.541 576.743 5.44934 561.711L5.36755 561.711Z" fill="#76AB9F"/>
<path d="M258.366 528.706C252.074 511.55 283.617 450.361 303.392 461.798C323.086 473.235 310.829 490.228 310.829 490.228C310.829 490.228 333.138 481.731 340.329 500.031C347.52 518.331 323.086 524.539 323.086 524.539C323.086 524.539 340.329 527.97 339.593 544.309C338.858 560.648 268.581 556.319 258.448 528.706L258.366 528.706Z" fill="#FFEBAB"/>
<path d="M261.144 505.424C268.58 517.269 271.849 530.259 273.238 543.657C273.238 543.657 259.264 536.876 256.649 528.38C254.034 519.883 261.144 505.342 261.144 505.342L261.144 505.424Z" fill="#76AB9F"/>
</svg>
