<svg width="639" height="333" viewBox="0 0 639 333" fill="none" xmlns="http://www.w3.org/2000/svg">
<path d="M194.187 371.838C209.031 352.243 207.555 296.981 228.551 312.314C246.101 325.104 184.838 408.159 193.859 420.212C202.963 432.264 259.715 455.303 266.604 448.58C273.494 441.857 264.636 420.704 278.496 396.189C294.899 367.247 285.385 327.564 299.328 330.843C313.27 334.123 310.071 356.916 307.201 376.921C304.494 395.697 293.095 452.434 304.33 456.861C315.566 461.289 365.922 461.289 370.515 455.549C375.107 449.81 372.647 427.837 373.057 412.669C373.549 393.975 350.257 367.083 363.462 362.491C376.666 357.982 380.93 378.315 384.129 393.565C387.081 407.832 388.065 447.678 399.793 450.056C411.521 452.434 448.755 438.742 452.609 433.576C456.464 428.411 429.072 392.171 438.831 392.745C447.689 393.319 453.758 414.391 462.861 429.231C480.166 421.524 493.862 413.325 501.243 405.782C511.003 395.779 515.185 373.314 515.513 346.339C502.555 350.521 464.583 361.753 455.808 351.177C446.048 339.37 511.823 334.697 515.103 325.35C518.384 316.003 516.661 284.191 508.788 270.991C504.934 264.514 481.806 264.924 457.448 273.942C431.86 283.453 404.714 301.573 391.592 292.964C364.938 275.582 435.141 268.859 469.012 257.38C485.661 251.723 500.095 246.394 501.407 237.293C502.719 228.192 495.338 216.878 491.976 208.761C488.203 199.66 478.362 178.67 469.258 173.423C460.155 168.176 428.58 185.558 399.629 204.661C358.459 231.8 351.242 260.742 334.183 255.413C317.124 250.165 344.271 202.038 373.959 183.508C398.317 168.258 443.998 150.876 438.995 141.447C433.993 132.018 397.005 99.4686 371.335 94.8771C345.665 90.3677 306.955 211.466 290.634 203.513C273.247 194.986 309.169 148.416 318.436 125.213C324.669 109.635 333.035 90.1217 330.82 81.0209C328.524 71.92 291.536 71.6741 278.988 80.037C266.522 88.4 261.274 169.816 239.704 167.356C215.264 164.486 241.755 126.279 246.019 108.569C247.742 101.272 247.66 93.8931 246.921 87.5799C236.67 91.1875 226.746 95.779 217.725 101.764C177.128 128.329 172.864 188.673 172.864 188.673C172.864 188.673 136.532 204.333 120.458 228.93C111.354 242.786 101.759 270.991 103.727 302.885C110.698 298.703 118.899 295.424 127.183 292.554C146.128 285.913 169.337 261.644 171.224 278.944C172.946 295.26 114.963 326.908 113.487 344.535C113.159 348.389 116.931 352.324 119.063 356.096C129.971 375.691 164.745 410.701 172.946 407.996C182.623 404.798 178.605 392.745 194.515 371.838L194.187 371.838Z" fill="#76AB9F"/>
<path d="M103.481 302.967C110.452 298.785 118.653 295.506 126.937 292.636C145.882 285.995 169.091 261.726 170.978 279.026C172.7 295.342 114.717 326.99 113.241 344.617C112.913 348.471 116.685 352.406 118.817 356.178C129.725 375.774 164.499 410.783 172.7 408.077C182.377 404.88 178.359 392.827 194.269 371.92C209.113 352.324 207.637 297.064 228.633 312.396C246.183 325.186 184.92 408.241 193.941 420.294C203.045 432.346 259.797 455.385 266.686 448.662C273.576 441.939 264.718 420.786 278.578 396.271C294.981 367.328 285.467 327.645 299.41 330.925C313.352 334.205 310.153 356.998 307.283 377.003C304.576 395.779 293.177 452.516 304.412 456.943C315.648 461.371 366.004 461.371 370.597 455.631C375.189 449.892 372.729 427.919 373.139 412.751C373.631 394.057 350.339 367.165 363.544 362.573C376.748 358.064 381.012 378.397 384.211 393.647C387.163 407.914 388.147 447.76 399.875 450.138C411.603 452.516 448.837 438.823 452.692 433.658C456.546 428.493 429.154 392.253 438.913 392.827C447.771 393.401 453.84 414.473 462.943 429.313C480.248 421.606 493.944 413.407 501.325 405.864C503.539 403.568 505.426 400.616 507.066 397.091C448.591 374.544 350.75 313.133 307.283 283.289C261.848 252.133 253.974 239.671 172.864 188.837C172.864 188.837 136.532 204.497 120.458 229.094C111.354 242.95 101.759 271.155 103.727 303.049L103.481 302.967Z" fill="#609790"/>
<path d="M485.661 393.483C485.661 393.483 452.528 378.725 405.37 352.079C381.75 338.796 354.768 322.398 326.474 303.623C298.18 284.765 269.311 263.612 239.458 243.688C224.614 233.685 209.524 223.929 194.679 214.418C179.753 204.989 164.909 196.052 150.474 187.607C135.958 179.244 121.77 171.455 108.156 164.404C101.267 160.961 94.6238 157.681 88.2268 154.401C81.6658 151.368 75.3508 148.498 69.3638 145.71C57.1439 140.463 45.9082 135.626 35.7387 132.1C25.6511 128.165 16.6297 125.623 9.33054 123.327C1.94939 121.032 -3.95558 119.884 -7.89219 118.818C-11.9108 117.834 -14.0432 117.342 -14.0432 117.342L-14.6172 117.178C-19.1279 116.03 -21.8343 111.521 -20.7681 107.011C-19.62 102.502 -15.1093 99.7963 -10.5986 100.862L-10.5165 100.862C-10.5165 100.862 -8.3022 101.436 -4.11955 102.502C0.0631025 103.732 6.29605 104.962 13.9232 107.503C21.5504 110.045 30.8999 112.833 41.2335 117.014C51.7311 120.786 63.2129 125.951 75.6788 131.444C81.8298 134.396 88.2268 137.43 94.8698 140.627C101.431 143.989 108.156 147.514 115.045 151.04C128.741 158.419 143.093 166.536 157.692 175.145C172.208 183.918 187.134 193.183 201.978 202.857C216.823 212.614 231.831 222.617 246.675 232.948C276.364 253.363 305.479 274.926 332.789 294.194C360.345 313.379 386.835 330.187 409.963 343.88C456.218 371.346 488.613 386.596 488.613 386.596C490.499 387.498 491.238 389.63 490.417 391.516C489.597 393.319 487.383 394.139 485.579 393.319L485.661 393.483Z" fill="#569188"/>
<path d="M600.397 255.33C607.778 249.591 623.36 239.178 628.363 245.655C633.366 252.132 616.799 263.119 608.352 263.693C616.307 264.103 638.041 264.923 638.041 272.876C638.041 280.829 623.524 279.763 614.995 277.467C621.966 282.878 625.411 297.308 619.752 300.916C614.749 304.114 602.037 290.749 599.166 281.813C600.971 287.142 594.41 306.737 587.931 306.819C576.777 306.819 580.632 287.634 585.306 281.813C581.616 285.748 569.232 289.766 564.721 286.24C560.21 282.714 576.777 273.122 581.288 271.482C574.809 272.138 556.93 266.972 558.406 259.183C559.8 251.476 578.499 257.954 583.42 261.889C580.058 258.364 565.787 242.621 571.528 236.144C577.269 229.667 591.375 248.279 594.082 252.624C593.261 247.705 592.851 228.027 599.084 227.618C605.317 227.208 605.563 251.148 600.561 255.33L600.397 255.33Z" fill="#EBDFE1"/>
<path d="M599.085 259.183C594.082 257.79 588.997 260.741 587.767 265.661C586.619 270.58 588.341 275.499 593.426 276.893C598.429 278.287 601.791 275.827 604.087 271.318C606.302 267.137 604.087 260.577 599.085 259.183Z" fill="#FFA64D"/>
<path d="M1.04682 31.0065L3.17923 22.4795C60.0961 36.5817 112.994 43.2229 113.568 43.3049L112.502 51.9958C112.01 51.9958 58.6199 45.1907 1.12891 31.0065L1.04682 31.0065Z" fill="#76AB9F"/>
<path d="M109.14 49.2082C111.026 29.8586 166.385 -14.7437 179.179 5.17979C191.973 25.1033 173.438 35.9259 173.438 35.9259C173.438 35.9259 197.303 37.8936 195.745 58.719C194.187 79.5444 169.419 74.4609 169.419 74.4609C169.419 74.4609 183.443 85.5296 175.652 100.944C167.861 116.358 106.187 80.4463 109.14 49.2902L109.14 49.2082Z" fill="#EBDFE1"/>
<path d="M121.934 28.0547C123.41 42.8128 120.704 56.7511 116.029 70.3614C116.029 70.3614 106.352 57.4891 107.746 48.2243C109.14 38.8775 121.934 28.1368 121.934 28.1368L121.934 28.0547Z" fill="#76AB9F"/>
</svg>
